<svg width="32" height="32" viewBox="0 0 32 32" fill="none" xmlns="http://www.w3.org/2000/svg">
<g clip-path="url(#clip0_3643_10901)">
<path d="M13.5332 15.1468L5.34656 10.7201C4.18656 10.0934 4.18656 8.42675 5.34656 7.80008L13.5332 3.37342C15.0799 2.54675 16.9332 2.54675 18.4666 3.37342L26.6532 7.80008C27.8132 8.42675 27.8132 10.0934 26.6532 10.7201L18.4666 15.1468C16.9199 15.9734 15.0666 15.9734 13.5332 15.1468Z" stroke="#231F20" stroke-width="1.33333" stroke-miterlimit="10"/>
<path d="M23.1326 12.6406L26.6659 14.5473C27.8259 15.174 27.8259 16.8406 26.6659 17.4673L18.4793 21.894C16.9326 22.7206 15.0793 22.7206 13.5459 21.894L5.35926 17.4673C4.19926 16.8406 4.19926 15.174 5.35926 14.5473L8.89259 12.6406" stroke="#231F20" stroke-width="1.33333" stroke-miterlimit="10"/>
<path d="M23.1326 19.3594L26.6659 21.266C27.8259 21.8927 27.8259 23.5594 26.6659 24.186L18.4793 28.6127C16.9326 29.4394 15.0793 29.4394 13.5459 28.6127L5.35926 24.186C4.19926 23.5594 4.19926 21.8927 5.35926 21.266L8.89259 19.3594" stroke="#231F20" stroke-width="1.33333" stroke-miterlimit="10"/>
</g>
<defs>
<clipPath id="clip0_3643_10901">
<rect width="32" height="32" fill="white"/>
</clipPath>
</defs>
</svg>
