<svg width="32" height="32" viewBox="0 0 32 32" fill="none" xmlns="http://www.w3.org/2000/svg">
<path d="M18.3182 7.19985C18.7105 6.94768 19.1029 6.94766 19.4952 7.19985C19.9155 7.42403 20.1257 7.77434 20.1257 8.25071V21.9538C20.1257 22.4302 19.9155 22.7945 19.4952 23.0467L19.4584 23.0671C19.0784 23.2699 18.6983 23.249 18.3182 23.0047L12.4755 19.5159H8.75652V24.2599C8.75652 24.5136 8.67578 24.7212 8.51434 24.8827C8.35289 25.021 8.15684 25.0902 7.92621 25.0902C7.69558 25.0902 7.49953 25.021 7.33809 24.8827C7.17664 24.7212 7.09598 24.5136 7.09598 24.2599V19.5159H5.32965C4.67813 19.5159 4.11865 19.2923 3.65121 18.8452L3.60629 18.8013C3.1299 18.3249 2.8916 17.7504 2.8916 17.0779V13.1266C2.89161 12.4751 3.11523 11.9156 3.5623 11.4482L3.60629 11.4033C4.08267 10.9269 4.65713 10.6887 5.32965 10.6887H12.4755L18.3182 7.19985ZM22.4131 20.8166C22.6391 20.5167 23.0654 20.4568 23.3654 20.6827L26.4039 22.9724C26.7038 23.1984 26.7637 23.6248 26.5377 23.9248C26.3117 24.2247 25.8854 24.2846 25.5854 24.0586L22.5469 21.7689C22.247 21.5429 22.1871 21.1166 22.4131 20.8166ZM13.1727 11.8563L12.8507 12.0487H5.32965C5.01853 12.0487 4.78975 12.1431 4.56793 12.3649C4.3461 12.5868 4.25169 12.8155 4.25168 13.1266V17.0779C4.25168 17.389 4.3461 17.6178 4.56793 17.8396C4.78976 18.0614 5.01851 18.1559 5.32965 18.1559H12.8507L13.1727 18.3482L18.7657 21.6878V8.51665L13.1727 11.8563ZM28.4385 14.4721C28.814 14.4721 29.1185 14.7766 29.1185 15.1521C29.1185 15.5277 28.814 15.8321 28.4385 15.8321H24.7282C24.3526 15.8321 24.0482 15.5277 24.0482 15.1521C24.0482 14.7766 24.3526 14.4721 24.7282 14.4721H28.4385ZM25.5854 6.24633C25.8854 6.02034 26.3117 6.08024 26.5377 6.38016C26.7637 6.68009 26.7038 7.10649 26.4039 7.33251L23.3654 9.62212C23.0654 9.84813 22.6391 9.78822 22.4131 9.48829C22.1871 9.18836 22.247 8.76204 22.5469 8.53602L25.5854 6.24633Z" fill="black"/>
</svg>
